<mxfile host="app.diagrams.net" agent="Mozilla/5.0 (Windows NT 10.0; Win64; x64) AppleWebKit/537.36 (KHTML, like Gecko) Chrome/126.0.0.0 Safari/537.36" version="24.7.5">
  <diagram name="Página-1" id="o26j8xtppPVwbAAESZ1I">
    <mxGraphModel dx="1411" dy="800" grid="1" gridSize="10" guides="1" tooltips="1" connect="1" arrows="1" fold="1" page="1" pageScale="1" pageWidth="827" pageHeight="1169" math="0" shadow="0">
      <root>
        <mxCell id="0" />
        <mxCell id="1" parent="0" />
        <mxCell id="sc70_CKnT4Qj9o-1Ib0b-28" value="" style="ellipse;whiteSpace=wrap;html=1;aspect=fixed;fillColor=#80FF00;" vertex="1" parent="1">
          <mxGeometry x="40" y="225" width="90" height="90" as="geometry" />
        </mxCell>
        <mxCell id="sc70_CKnT4Qj9o-1Ib0b-1" value="&lt;h1&gt;&lt;font color=&quot;#80ff00&quot; style=&quot;font-size: 30px;&quot; face=&quot;Times New Roman&quot;&gt;GESTION DE INVENTARIO&lt;/font&gt;&lt;/h1&gt;" style="rounded=1;whiteSpace=wrap;html=1;" vertex="1" parent="1">
          <mxGeometry x="264" y="240" width="300" height="80" as="geometry" />
        </mxCell>
        <mxCell id="sc70_CKnT4Qj9o-1Ib0b-2" value="&lt;h2&gt;&lt;font face=&quot;Times New Roman&quot;&gt;Productos&lt;/font&gt;&lt;/h2&gt;" style="rounded=1;whiteSpace=wrap;html=1;fillColor=#80FF00;strokeColor=#80ff66;" vertex="1" parent="1">
          <mxGeometry x="190" y="390" width="170" height="50" as="geometry" />
        </mxCell>
        <mxCell id="sc70_CKnT4Qj9o-1Ib0b-24" value="&lt;h2&gt;&lt;font face=&quot;Times New Roman&quot;&gt;Clientes&lt;/font&gt;&lt;/h2&gt;" style="rounded=1;whiteSpace=wrap;html=1;fillColor=#80FF00;strokeColor=#80ff66;" vertex="1" parent="1">
          <mxGeometry x="190" y="520" width="170" height="50" as="geometry" />
        </mxCell>
        <mxCell id="sc70_CKnT4Qj9o-1Ib0b-25" value="&lt;h2&gt;&lt;font face=&quot;Times New Roman&quot;&gt;Ventas&lt;/font&gt;&lt;/h2&gt;" style="rounded=1;whiteSpace=wrap;html=1;fillColor=#80FF00;strokeColor=#80ff66;" vertex="1" parent="1">
          <mxGeometry x="480" y="390" width="170" height="50" as="geometry" />
        </mxCell>
        <mxCell id="sc70_CKnT4Qj9o-1Ib0b-26" value="&lt;h2&gt;&lt;font face=&quot;Times New Roman&quot;&gt;Proveedores&lt;/font&gt;&lt;/h2&gt;" style="rounded=1;whiteSpace=wrap;html=1;fillColor=#80FF00;strokeColor=#80ff66;" vertex="1" parent="1">
          <mxGeometry x="480" y="520" width="170" height="50" as="geometry" />
        </mxCell>
        <mxCell id="sc70_CKnT4Qj9o-1Ib0b-27" value="" style="shape=actor;whiteSpace=wrap;html=1;fillColor=#FFFFFF;" vertex="1" parent="1">
          <mxGeometry x="60" y="240" width="50" height="60" as="geometry" />
        </mxCell>
        <mxCell id="sc70_CKnT4Qj9o-1Ib0b-29" value="Genesis Rodriguez" style="text;html=1;align=center;verticalAlign=middle;resizable=0;points=[];autosize=1;strokeColor=none;fillColor=none;" vertex="1" parent="1">
          <mxGeometry x="15" y="318" width="130" height="30" as="geometry" />
        </mxCell>
        <mxCell id="sc70_CKnT4Qj9o-1Ib0b-31" value="&lt;h1&gt;&lt;font color=&quot;#80ff00&quot; style=&quot;font-size: 30px;&quot; face=&quot;Times New Roman&quot;&gt;PRODUCTOS&lt;/font&gt;&lt;/h1&gt;" style="rounded=1;whiteSpace=wrap;html=1;" vertex="1" parent="1">
          <mxGeometry x="530" y="710" width="300" height="80" as="geometry" />
        </mxCell>
        <mxCell id="sc70_CKnT4Qj9o-1Ib0b-38" value="Assets" style="childLayout=tableLayout;recursiveResize=0;strokeColor=#98bf21;fillColor=#80FF00;shadow=1;" vertex="1" parent="1">
          <mxGeometry x="200" y="840" width="960" height="250" as="geometry" />
        </mxCell>
        <mxCell id="sc70_CKnT4Qj9o-1Ib0b-39" style="shape=tableRow;horizontal=0;startSize=0;swimlaneHead=0;swimlaneBody=0;top=0;left=0;bottom=0;right=0;dropTarget=0;collapsible=0;recursiveResize=0;expand=0;fontStyle=0;strokeColor=inherit;fillColor=#ffffff;" vertex="1" parent="sc70_CKnT4Qj9o-1Ib0b-38">
          <mxGeometry width="960" height="51" as="geometry" />
        </mxCell>
        <mxCell id="sc70_CKnT4Qj9o-1Ib0b-40" value="Código" style="connectable=0;recursiveResize=0;strokeColor=inherit;fillColor=#A7C942;align=center;fontStyle=1;fontColor=#FFFFFF;html=1;" vertex="1" parent="sc70_CKnT4Qj9o-1Ib0b-39">
          <mxGeometry width="160" height="51" as="geometry">
            <mxRectangle width="160" height="51" as="alternateBounds" />
          </mxGeometry>
        </mxCell>
        <mxCell id="sc70_CKnT4Qj9o-1Ib0b-41" value="Nombre" style="connectable=0;recursiveResize=0;strokeColor=inherit;fillColor=#A7C942;align=center;fontStyle=1;fontColor=#FFFFFF;html=1;" vertex="1" parent="sc70_CKnT4Qj9o-1Ib0b-39">
          <mxGeometry x="160" width="160" height="51" as="geometry">
            <mxRectangle width="160" height="51" as="alternateBounds" />
          </mxGeometry>
        </mxCell>
        <mxCell id="sc70_CKnT4Qj9o-1Ib0b-42" value="Marca" style="connectable=0;recursiveResize=0;strokeColor=inherit;fillColor=#A7C942;align=center;fontStyle=1;fontColor=#FFFFFF;html=1;" vertex="1" parent="sc70_CKnT4Qj9o-1Ib0b-39">
          <mxGeometry x="320" width="160" height="51" as="geometry">
            <mxRectangle width="160" height="51" as="alternateBounds" />
          </mxGeometry>
        </mxCell>
        <mxCell id="sc70_CKnT4Qj9o-1Ib0b-59" value="Precio de compra" style="connectable=0;recursiveResize=0;strokeColor=inherit;fillColor=#A7C942;align=center;fontStyle=1;fontColor=#FFFFFF;html=1;" vertex="1" parent="sc70_CKnT4Qj9o-1Ib0b-39">
          <mxGeometry x="480" width="160" height="51" as="geometry">
            <mxRectangle width="160" height="51" as="alternateBounds" />
          </mxGeometry>
        </mxCell>
        <mxCell id="sc70_CKnT4Qj9o-1Ib0b-64" value="Precio de venta" style="connectable=0;recursiveResize=0;strokeColor=inherit;fillColor=#A7C942;align=center;fontStyle=1;fontColor=#FFFFFF;html=1;" vertex="1" parent="sc70_CKnT4Qj9o-1Ib0b-39">
          <mxGeometry x="640" width="160" height="51" as="geometry">
            <mxRectangle width="160" height="51" as="alternateBounds" />
          </mxGeometry>
        </mxCell>
        <mxCell id="sc70_CKnT4Qj9o-1Ib0b-69" value="Cantidad" style="connectable=0;recursiveResize=0;strokeColor=inherit;fillColor=#A7C942;align=center;fontStyle=1;fontColor=#FFFFFF;html=1;" vertex="1" parent="sc70_CKnT4Qj9o-1Ib0b-39">
          <mxGeometry x="800" width="160" height="51" as="geometry">
            <mxRectangle width="160" height="51" as="alternateBounds" />
          </mxGeometry>
        </mxCell>
        <mxCell id="sc70_CKnT4Qj9o-1Ib0b-43" value="" style="shape=tableRow;horizontal=0;startSize=0;swimlaneHead=0;swimlaneBody=0;top=0;left=0;bottom=0;right=0;dropTarget=0;collapsible=0;recursiveResize=0;expand=0;fontStyle=0;strokeColor=inherit;fillColor=#ffffff;" vertex="1" parent="sc70_CKnT4Qj9o-1Ib0b-38">
          <mxGeometry y="51" width="960" height="50" as="geometry" />
        </mxCell>
        <mxCell id="sc70_CKnT4Qj9o-1Ib0b-44" value="901" style="connectable=0;recursiveResize=0;strokeColor=inherit;fillColor=inherit;align=center;whiteSpace=wrap;html=1;" vertex="1" parent="sc70_CKnT4Qj9o-1Ib0b-43">
          <mxGeometry width="160" height="50" as="geometry">
            <mxRectangle width="160" height="50" as="alternateBounds" />
          </mxGeometry>
        </mxCell>
        <mxCell id="sc70_CKnT4Qj9o-1Ib0b-45" value="&lt;table&gt;&lt;tbody&gt;&lt;tr&gt;&lt;td&gt;Laptop X200&lt;/td&gt;&lt;/tr&gt;&lt;/tbody&gt;&lt;/table&gt;" style="connectable=0;recursiveResize=0;strokeColor=inherit;fillColor=inherit;align=center;whiteSpace=wrap;html=1;" vertex="1" parent="sc70_CKnT4Qj9o-1Ib0b-43">
          <mxGeometry x="160" width="160" height="50" as="geometry">
            <mxRectangle width="160" height="50" as="alternateBounds" />
          </mxGeometry>
        </mxCell>
        <mxCell id="sc70_CKnT4Qj9o-1Ib0b-46" value="TechBrand" style="connectable=0;recursiveResize=0;strokeColor=inherit;fillColor=inherit;align=center;whiteSpace=wrap;html=1;" vertex="1" parent="sc70_CKnT4Qj9o-1Ib0b-43">
          <mxGeometry x="320" width="160" height="50" as="geometry">
            <mxRectangle width="160" height="50" as="alternateBounds" />
          </mxGeometry>
        </mxCell>
        <mxCell id="sc70_CKnT4Qj9o-1Ib0b-60" value="$500" style="connectable=0;recursiveResize=0;strokeColor=inherit;fillColor=inherit;align=center;whiteSpace=wrap;html=1;" vertex="1" parent="sc70_CKnT4Qj9o-1Ib0b-43">
          <mxGeometry x="480" width="160" height="50" as="geometry">
            <mxRectangle width="160" height="50" as="alternateBounds" />
          </mxGeometry>
        </mxCell>
        <mxCell id="sc70_CKnT4Qj9o-1Ib0b-65" value="$700" style="connectable=0;recursiveResize=0;strokeColor=inherit;fillColor=inherit;align=center;whiteSpace=wrap;html=1;" vertex="1" parent="sc70_CKnT4Qj9o-1Ib0b-43">
          <mxGeometry x="640" width="160" height="50" as="geometry">
            <mxRectangle width="160" height="50" as="alternateBounds" />
          </mxGeometry>
        </mxCell>
        <mxCell id="sc70_CKnT4Qj9o-1Ib0b-70" value="15" style="connectable=0;recursiveResize=0;strokeColor=inherit;fillColor=inherit;align=center;whiteSpace=wrap;html=1;" vertex="1" parent="sc70_CKnT4Qj9o-1Ib0b-43">
          <mxGeometry x="800" width="160" height="50" as="geometry">
            <mxRectangle width="160" height="50" as="alternateBounds" />
          </mxGeometry>
        </mxCell>
        <mxCell id="sc70_CKnT4Qj9o-1Ib0b-47" value="" style="shape=tableRow;horizontal=0;startSize=0;swimlaneHead=0;swimlaneBody=0;top=0;left=0;bottom=0;right=0;dropTarget=0;collapsible=0;recursiveResize=0;expand=0;fontStyle=1;strokeColor=inherit;fillColor=#EAF2D3;" vertex="1" parent="sc70_CKnT4Qj9o-1Ib0b-38">
          <mxGeometry y="101" width="960" height="49" as="geometry" />
        </mxCell>
        <mxCell id="sc70_CKnT4Qj9o-1Ib0b-48" value="902" style="connectable=0;recursiveResize=0;strokeColor=inherit;fillColor=inherit;whiteSpace=wrap;html=1;" vertex="1" parent="sc70_CKnT4Qj9o-1Ib0b-47">
          <mxGeometry width="160" height="49" as="geometry">
            <mxRectangle width="160" height="49" as="alternateBounds" />
          </mxGeometry>
        </mxCell>
        <mxCell id="sc70_CKnT4Qj9o-1Ib0b-49" value="&lt;table&gt;&lt;tbody&gt;&lt;tr&gt;&lt;td&gt;Smartphone ProMax&lt;/td&gt;&lt;/tr&gt;&lt;/tbody&gt;&lt;/table&gt;" style="connectable=0;recursiveResize=0;strokeColor=inherit;fillColor=inherit;whiteSpace=wrap;html=1;" vertex="1" parent="sc70_CKnT4Qj9o-1Ib0b-47">
          <mxGeometry x="160" width="160" height="49" as="geometry">
            <mxRectangle width="160" height="49" as="alternateBounds" />
          </mxGeometry>
        </mxCell>
        <mxCell id="sc70_CKnT4Qj9o-1Ib0b-50" value="PhoneCorp" style="connectable=0;recursiveResize=0;strokeColor=inherit;fillColor=inherit;whiteSpace=wrap;html=1;" vertex="1" parent="sc70_CKnT4Qj9o-1Ib0b-47">
          <mxGeometry x="320" width="160" height="49" as="geometry">
            <mxRectangle width="160" height="49" as="alternateBounds" />
          </mxGeometry>
        </mxCell>
        <mxCell id="sc70_CKnT4Qj9o-1Ib0b-61" value="$300" style="connectable=0;recursiveResize=0;strokeColor=inherit;fillColor=inherit;whiteSpace=wrap;html=1;" vertex="1" parent="sc70_CKnT4Qj9o-1Ib0b-47">
          <mxGeometry x="480" width="160" height="49" as="geometry">
            <mxRectangle width="160" height="49" as="alternateBounds" />
          </mxGeometry>
        </mxCell>
        <mxCell id="sc70_CKnT4Qj9o-1Ib0b-66" value="$450" style="connectable=0;recursiveResize=0;strokeColor=inherit;fillColor=inherit;whiteSpace=wrap;html=1;" vertex="1" parent="sc70_CKnT4Qj9o-1Ib0b-47">
          <mxGeometry x="640" width="160" height="49" as="geometry">
            <mxRectangle width="160" height="49" as="alternateBounds" />
          </mxGeometry>
        </mxCell>
        <mxCell id="sc70_CKnT4Qj9o-1Ib0b-71" value="30" style="connectable=0;recursiveResize=0;strokeColor=inherit;fillColor=inherit;whiteSpace=wrap;html=1;" vertex="1" parent="sc70_CKnT4Qj9o-1Ib0b-47">
          <mxGeometry x="800" width="160" height="49" as="geometry">
            <mxRectangle width="160" height="49" as="alternateBounds" />
          </mxGeometry>
        </mxCell>
        <mxCell id="sc70_CKnT4Qj9o-1Ib0b-51" value="" style="shape=tableRow;horizontal=0;startSize=0;swimlaneHead=0;swimlaneBody=0;top=0;left=0;bottom=0;right=0;dropTarget=0;collapsible=0;recursiveResize=0;expand=0;fontStyle=0;strokeColor=inherit;fillColor=#ffffff;" vertex="1" parent="sc70_CKnT4Qj9o-1Ib0b-38">
          <mxGeometry y="150" width="960" height="51" as="geometry" />
        </mxCell>
        <mxCell id="sc70_CKnT4Qj9o-1Ib0b-52" value="903" style="connectable=0;recursiveResize=0;strokeColor=inherit;fillColor=inherit;fontStyle=0;align=center;whiteSpace=wrap;html=1;" vertex="1" parent="sc70_CKnT4Qj9o-1Ib0b-51">
          <mxGeometry width="160" height="51" as="geometry">
            <mxRectangle width="160" height="51" as="alternateBounds" />
          </mxGeometry>
        </mxCell>
        <mxCell id="sc70_CKnT4Qj9o-1Ib0b-53" value="Tablet Z10" style="connectable=0;recursiveResize=0;strokeColor=inherit;fillColor=inherit;fontStyle=0;align=center;whiteSpace=wrap;html=1;" vertex="1" parent="sc70_CKnT4Qj9o-1Ib0b-51">
          <mxGeometry x="160" width="160" height="51" as="geometry">
            <mxRectangle width="160" height="51" as="alternateBounds" />
          </mxGeometry>
        </mxCell>
        <mxCell id="sc70_CKnT4Qj9o-1Ib0b-54" value="GadgetInc" style="connectable=0;recursiveResize=0;strokeColor=inherit;fillColor=inherit;fontStyle=0;align=center;whiteSpace=wrap;html=1;" vertex="1" parent="sc70_CKnT4Qj9o-1Ib0b-51">
          <mxGeometry x="320" width="160" height="51" as="geometry">
            <mxRectangle width="160" height="51" as="alternateBounds" />
          </mxGeometry>
        </mxCell>
        <mxCell id="sc70_CKnT4Qj9o-1Ib0b-62" value="$200" style="connectable=0;recursiveResize=0;strokeColor=inherit;fillColor=inherit;fontStyle=0;align=center;whiteSpace=wrap;html=1;" vertex="1" parent="sc70_CKnT4Qj9o-1Ib0b-51">
          <mxGeometry x="480" width="160" height="51" as="geometry">
            <mxRectangle width="160" height="51" as="alternateBounds" />
          </mxGeometry>
        </mxCell>
        <mxCell id="sc70_CKnT4Qj9o-1Ib0b-67" value="$300" style="connectable=0;recursiveResize=0;strokeColor=inherit;fillColor=inherit;fontStyle=0;align=center;whiteSpace=wrap;html=1;" vertex="1" parent="sc70_CKnT4Qj9o-1Ib0b-51">
          <mxGeometry x="640" width="160" height="51" as="geometry">
            <mxRectangle width="160" height="51" as="alternateBounds" />
          </mxGeometry>
        </mxCell>
        <mxCell id="sc70_CKnT4Qj9o-1Ib0b-72" value="25" style="connectable=0;recursiveResize=0;strokeColor=inherit;fillColor=inherit;fontStyle=0;align=center;whiteSpace=wrap;html=1;" vertex="1" parent="sc70_CKnT4Qj9o-1Ib0b-51">
          <mxGeometry x="800" width="160" height="51" as="geometry">
            <mxRectangle width="160" height="51" as="alternateBounds" />
          </mxGeometry>
        </mxCell>
        <mxCell id="sc70_CKnT4Qj9o-1Ib0b-55" value="" style="shape=tableRow;horizontal=0;startSize=0;swimlaneHead=0;swimlaneBody=0;top=0;left=0;bottom=0;right=0;dropTarget=0;collapsible=0;recursiveResize=0;expand=0;fontStyle=1;strokeColor=inherit;fillColor=#EAF2D3;" vertex="1" parent="sc70_CKnT4Qj9o-1Ib0b-38">
          <mxGeometry y="201" width="960" height="49" as="geometry" />
        </mxCell>
        <mxCell id="sc70_CKnT4Qj9o-1Ib0b-56" value="904" style="connectable=0;recursiveResize=0;strokeColor=inherit;fillColor=inherit;whiteSpace=wrap;html=1;" vertex="1" parent="sc70_CKnT4Qj9o-1Ib0b-55">
          <mxGeometry width="160" height="49" as="geometry">
            <mxRectangle width="160" height="49" as="alternateBounds" />
          </mxGeometry>
        </mxCell>
        <mxCell id="sc70_CKnT4Qj9o-1Ib0b-57" value="Monitor HD 24&#39;&#39;" style="connectable=0;recursiveResize=0;strokeColor=inherit;fillColor=inherit;whiteSpace=wrap;html=1;" vertex="1" parent="sc70_CKnT4Qj9o-1Ib0b-55">
          <mxGeometry x="160" width="160" height="49" as="geometry">
            <mxRectangle width="160" height="49" as="alternateBounds" />
          </mxGeometry>
        </mxCell>
        <mxCell id="sc70_CKnT4Qj9o-1Ib0b-58" value="ScreenMaster" style="connectable=0;recursiveResize=0;strokeColor=inherit;fillColor=inherit;whiteSpace=wrap;html=1;" vertex="1" parent="sc70_CKnT4Qj9o-1Ib0b-55">
          <mxGeometry x="320" width="160" height="49" as="geometry">
            <mxRectangle width="160" height="49" as="alternateBounds" />
          </mxGeometry>
        </mxCell>
        <mxCell id="sc70_CKnT4Qj9o-1Ib0b-63" value="$100" style="connectable=0;recursiveResize=0;strokeColor=inherit;fillColor=inherit;whiteSpace=wrap;html=1;" vertex="1" parent="sc70_CKnT4Qj9o-1Ib0b-55">
          <mxGeometry x="480" width="160" height="49" as="geometry">
            <mxRectangle width="160" height="49" as="alternateBounds" />
          </mxGeometry>
        </mxCell>
        <mxCell id="sc70_CKnT4Qj9o-1Ib0b-68" value="$150" style="connectable=0;recursiveResize=0;strokeColor=inherit;fillColor=inherit;whiteSpace=wrap;html=1;" vertex="1" parent="sc70_CKnT4Qj9o-1Ib0b-55">
          <mxGeometry x="640" width="160" height="49" as="geometry">
            <mxRectangle width="160" height="49" as="alternateBounds" />
          </mxGeometry>
        </mxCell>
        <mxCell id="sc70_CKnT4Qj9o-1Ib0b-73" value="20" style="connectable=0;recursiveResize=0;strokeColor=inherit;fillColor=inherit;whiteSpace=wrap;html=1;" vertex="1" parent="sc70_CKnT4Qj9o-1Ib0b-55">
          <mxGeometry x="800" width="160" height="49" as="geometry">
            <mxRectangle width="160" height="49" as="alternateBounds" />
          </mxGeometry>
        </mxCell>
        <mxCell id="sc70_CKnT4Qj9o-1Ib0b-74" value="&lt;h2&gt;&lt;font face=&quot;Times New Roman&quot;&gt;Agregar&lt;/font&gt;&lt;/h2&gt;" style="rounded=1;whiteSpace=wrap;html=1;fillColor=#80FF00;strokeColor=#80ff66;" vertex="1" parent="1">
          <mxGeometry x="15" y="860" width="170" height="50" as="geometry" />
        </mxCell>
        <mxCell id="sc70_CKnT4Qj9o-1Ib0b-75" value="&lt;h2&gt;&lt;font face=&quot;Times New Roman&quot;&gt;Buscar&lt;/font&gt;&lt;/h2&gt;" style="rounded=1;whiteSpace=wrap;html=1;fillColor=#80FF00;strokeColor=#80ff66;" vertex="1" parent="1">
          <mxGeometry x="15" y="790" width="170" height="50" as="geometry" />
        </mxCell>
        <mxCell id="sc70_CKnT4Qj9o-1Ib0b-76" value="&lt;h2&gt;&lt;font face=&quot;Times New Roman&quot;&gt;Editar&lt;/font&gt;&lt;/h2&gt;" style="rounded=1;whiteSpace=wrap;html=1;fillColor=#80FF00;strokeColor=#80ff66;" vertex="1" parent="1">
          <mxGeometry x="15" y="930" width="170" height="50" as="geometry" />
        </mxCell>
        <mxCell id="sc70_CKnT4Qj9o-1Ib0b-77" value="&lt;h2&gt;&lt;font face=&quot;Times New Roman&quot;&gt;Eliminar&lt;/font&gt;&lt;/h2&gt;" style="rounded=1;whiteSpace=wrap;html=1;fillColor=#80FF00;strokeColor=#80ff66;" vertex="1" parent="1">
          <mxGeometry x="15" y="1070" width="170" height="50" as="geometry" />
        </mxCell>
        <mxCell id="sc70_CKnT4Qj9o-1Ib0b-78" value="&lt;h2&gt;&lt;font face=&quot;Times New Roman&quot;&gt;Vender&lt;/font&gt;&lt;/h2&gt;" style="rounded=1;whiteSpace=wrap;html=1;fillColor=#80FF00;strokeColor=#80ff66;" vertex="1" parent="1">
          <mxGeometry x="15" y="1000" width="170" height="50" as="geometry" />
        </mxCell>
        <mxCell id="sc70_CKnT4Qj9o-1Ib0b-79" value="&lt;h1&gt;&lt;font color=&quot;#80ff00&quot; style=&quot;font-size: 30px;&quot; face=&quot;Times New Roman&quot;&gt;Ventas&lt;/font&gt;&lt;/h1&gt;" style="rounded=1;whiteSpace=wrap;html=1;" vertex="1" parent="1">
          <mxGeometry x="1535" y="80" width="300" height="80" as="geometry" />
        </mxCell>
        <mxCell id="sc70_CKnT4Qj9o-1Ib0b-80" value="Assets" style="childLayout=tableLayout;recursiveResize=0;strokeColor=#98bf21;fillColor=#80FF00;shadow=1;" vertex="1" parent="1">
          <mxGeometry x="1205" y="210" width="960" height="250" as="geometry" />
        </mxCell>
        <mxCell id="sc70_CKnT4Qj9o-1Ib0b-81" style="shape=tableRow;horizontal=0;startSize=0;swimlaneHead=0;swimlaneBody=0;top=0;left=0;bottom=0;right=0;dropTarget=0;collapsible=0;recursiveResize=0;expand=0;fontStyle=0;strokeColor=inherit;fillColor=#ffffff;" vertex="1" parent="sc70_CKnT4Qj9o-1Ib0b-80">
          <mxGeometry width="960" height="51" as="geometry" />
        </mxCell>
        <mxCell id="sc70_CKnT4Qj9o-1Ib0b-82" value="Código" style="connectable=0;recursiveResize=0;strokeColor=inherit;fillColor=#A7C942;align=center;fontStyle=1;fontColor=#FFFFFF;html=1;" vertex="1" parent="sc70_CKnT4Qj9o-1Ib0b-81">
          <mxGeometry width="160" height="51" as="geometry">
            <mxRectangle width="160" height="51" as="alternateBounds" />
          </mxGeometry>
        </mxCell>
        <mxCell id="sc70_CKnT4Qj9o-1Ib0b-83" value="Nombre" style="connectable=0;recursiveResize=0;strokeColor=inherit;fillColor=#A7C942;align=center;fontStyle=1;fontColor=#FFFFFF;html=1;" vertex="1" parent="sc70_CKnT4Qj9o-1Ib0b-81">
          <mxGeometry x="160" width="160" height="51" as="geometry">
            <mxRectangle width="160" height="51" as="alternateBounds" />
          </mxGeometry>
        </mxCell>
        <mxCell id="sc70_CKnT4Qj9o-1Ib0b-84" value="Marca" style="connectable=0;recursiveResize=0;strokeColor=inherit;fillColor=#A7C942;align=center;fontStyle=1;fontColor=#FFFFFF;html=1;" vertex="1" parent="sc70_CKnT4Qj9o-1Ib0b-81">
          <mxGeometry x="320" width="160" height="51" as="geometry">
            <mxRectangle width="160" height="51" as="alternateBounds" />
          </mxGeometry>
        </mxCell>
        <mxCell id="sc70_CKnT4Qj9o-1Ib0b-85" value="Fecha de venta" style="connectable=0;recursiveResize=0;strokeColor=inherit;fillColor=#A7C942;align=center;fontStyle=1;fontColor=#FFFFFF;html=1;" vertex="1" parent="sc70_CKnT4Qj9o-1Ib0b-81">
          <mxGeometry x="480" width="160" height="51" as="geometry">
            <mxRectangle width="160" height="51" as="alternateBounds" />
          </mxGeometry>
        </mxCell>
        <mxCell id="sc70_CKnT4Qj9o-1Ib0b-86" value="Precio de venta" style="connectable=0;recursiveResize=0;strokeColor=inherit;fillColor=#A7C942;align=center;fontStyle=1;fontColor=#FFFFFF;html=1;" vertex="1" parent="sc70_CKnT4Qj9o-1Ib0b-81">
          <mxGeometry x="640" width="160" height="51" as="geometry">
            <mxRectangle width="160" height="51" as="alternateBounds" />
          </mxGeometry>
        </mxCell>
        <mxCell id="sc70_CKnT4Qj9o-1Ib0b-87" value="Cantidad" style="connectable=0;recursiveResize=0;strokeColor=inherit;fillColor=#A7C942;align=center;fontStyle=1;fontColor=#FFFFFF;html=1;" vertex="1" parent="sc70_CKnT4Qj9o-1Ib0b-81">
          <mxGeometry x="800" width="160" height="51" as="geometry">
            <mxRectangle width="160" height="51" as="alternateBounds" />
          </mxGeometry>
        </mxCell>
        <mxCell id="sc70_CKnT4Qj9o-1Ib0b-88" value="" style="shape=tableRow;horizontal=0;startSize=0;swimlaneHead=0;swimlaneBody=0;top=0;left=0;bottom=0;right=0;dropTarget=0;collapsible=0;recursiveResize=0;expand=0;fontStyle=0;strokeColor=inherit;fillColor=#ffffff;" vertex="1" parent="sc70_CKnT4Qj9o-1Ib0b-80">
          <mxGeometry y="51" width="960" height="50" as="geometry" />
        </mxCell>
        <mxCell id="sc70_CKnT4Qj9o-1Ib0b-89" value="905" style="connectable=0;recursiveResize=0;strokeColor=inherit;fillColor=inherit;align=center;whiteSpace=wrap;html=1;" vertex="1" parent="sc70_CKnT4Qj9o-1Ib0b-88">
          <mxGeometry width="160" height="50" as="geometry">
            <mxRectangle width="160" height="50" as="alternateBounds" />
          </mxGeometry>
        </mxCell>
        <mxCell id="sc70_CKnT4Qj9o-1Ib0b-90" value="Teclado Mecánico" style="connectable=0;recursiveResize=0;strokeColor=inherit;fillColor=inherit;align=center;whiteSpace=wrap;html=1;" vertex="1" parent="sc70_CKnT4Qj9o-1Ib0b-88">
          <mxGeometry x="160" width="160" height="50" as="geometry">
            <mxRectangle width="160" height="50" as="alternateBounds" />
          </mxGeometry>
        </mxCell>
        <mxCell id="sc70_CKnT4Qj9o-1Ib0b-91" value="&lt;br&gt;KeyTech" style="connectable=0;recursiveResize=0;strokeColor=inherit;fillColor=inherit;align=center;whiteSpace=wrap;html=1;" vertex="1" parent="sc70_CKnT4Qj9o-1Ib0b-88">
          <mxGeometry x="320" width="160" height="50" as="geometry">
            <mxRectangle width="160" height="50" as="alternateBounds" />
          </mxGeometry>
        </mxCell>
        <mxCell id="sc70_CKnT4Qj9o-1Ib0b-92" value="30/6/2024" style="connectable=0;recursiveResize=0;strokeColor=inherit;fillColor=inherit;align=center;whiteSpace=wrap;html=1;" vertex="1" parent="sc70_CKnT4Qj9o-1Ib0b-88">
          <mxGeometry x="480" width="160" height="50" as="geometry">
            <mxRectangle width="160" height="50" as="alternateBounds" />
          </mxGeometry>
        </mxCell>
        <mxCell id="sc70_CKnT4Qj9o-1Ib0b-93" value="$80" style="connectable=0;recursiveResize=0;strokeColor=inherit;fillColor=inherit;align=center;whiteSpace=wrap;html=1;" vertex="1" parent="sc70_CKnT4Qj9o-1Ib0b-88">
          <mxGeometry x="640" width="160" height="50" as="geometry">
            <mxRectangle width="160" height="50" as="alternateBounds" />
          </mxGeometry>
        </mxCell>
        <mxCell id="sc70_CKnT4Qj9o-1Ib0b-94" value="2" style="connectable=0;recursiveResize=0;strokeColor=inherit;fillColor=inherit;align=center;whiteSpace=wrap;html=1;" vertex="1" parent="sc70_CKnT4Qj9o-1Ib0b-88">
          <mxGeometry x="800" width="160" height="50" as="geometry">
            <mxRectangle width="160" height="50" as="alternateBounds" />
          </mxGeometry>
        </mxCell>
        <mxCell id="sc70_CKnT4Qj9o-1Ib0b-95" value="" style="shape=tableRow;horizontal=0;startSize=0;swimlaneHead=0;swimlaneBody=0;top=0;left=0;bottom=0;right=0;dropTarget=0;collapsible=0;recursiveResize=0;expand=0;fontStyle=1;strokeColor=inherit;fillColor=#EAF2D3;" vertex="1" parent="sc70_CKnT4Qj9o-1Ib0b-80">
          <mxGeometry y="101" width="960" height="49" as="geometry" />
        </mxCell>
        <mxCell id="sc70_CKnT4Qj9o-1Ib0b-96" value="889" style="connectable=0;recursiveResize=0;strokeColor=inherit;fillColor=inherit;whiteSpace=wrap;html=1;" vertex="1" parent="sc70_CKnT4Qj9o-1Ib0b-95">
          <mxGeometry width="160" height="49" as="geometry">
            <mxRectangle width="160" height="49" as="alternateBounds" />
          </mxGeometry>
        </mxCell>
        <mxCell id="sc70_CKnT4Qj9o-1Ib0b-97" value="Mouse Óptico" style="connectable=0;recursiveResize=0;strokeColor=inherit;fillColor=inherit;whiteSpace=wrap;html=1;" vertex="1" parent="sc70_CKnT4Qj9o-1Ib0b-95">
          <mxGeometry x="160" width="160" height="49" as="geometry">
            <mxRectangle width="160" height="49" as="alternateBounds" />
          </mxGeometry>
        </mxCell>
        <mxCell id="sc70_CKnT4Qj9o-1Ib0b-98" value="ClickGear" style="connectable=0;recursiveResize=0;strokeColor=inherit;fillColor=inherit;whiteSpace=wrap;html=1;" vertex="1" parent="sc70_CKnT4Qj9o-1Ib0b-95">
          <mxGeometry x="320" width="160" height="49" as="geometry">
            <mxRectangle width="160" height="49" as="alternateBounds" />
          </mxGeometry>
        </mxCell>
        <mxCell id="sc70_CKnT4Qj9o-1Ib0b-99" value="19/6/2024" style="connectable=0;recursiveResize=0;strokeColor=inherit;fillColor=inherit;whiteSpace=wrap;html=1;" vertex="1" parent="sc70_CKnT4Qj9o-1Ib0b-95">
          <mxGeometry x="480" width="160" height="49" as="geometry">
            <mxRectangle width="160" height="49" as="alternateBounds" />
          </mxGeometry>
        </mxCell>
        <mxCell id="sc70_CKnT4Qj9o-1Ib0b-100" value="$35" style="connectable=0;recursiveResize=0;strokeColor=inherit;fillColor=inherit;whiteSpace=wrap;html=1;" vertex="1" parent="sc70_CKnT4Qj9o-1Ib0b-95">
          <mxGeometry x="640" width="160" height="49" as="geometry">
            <mxRectangle width="160" height="49" as="alternateBounds" />
          </mxGeometry>
        </mxCell>
        <mxCell id="sc70_CKnT4Qj9o-1Ib0b-101" value="1" style="connectable=0;recursiveResize=0;strokeColor=inherit;fillColor=inherit;whiteSpace=wrap;html=1;" vertex="1" parent="sc70_CKnT4Qj9o-1Ib0b-95">
          <mxGeometry x="800" width="160" height="49" as="geometry">
            <mxRectangle width="160" height="49" as="alternateBounds" />
          </mxGeometry>
        </mxCell>
        <mxCell id="sc70_CKnT4Qj9o-1Ib0b-102" value="" style="shape=tableRow;horizontal=0;startSize=0;swimlaneHead=0;swimlaneBody=0;top=0;left=0;bottom=0;right=0;dropTarget=0;collapsible=0;recursiveResize=0;expand=0;fontStyle=0;strokeColor=inherit;fillColor=#ffffff;" vertex="1" parent="sc70_CKnT4Qj9o-1Ib0b-80">
          <mxGeometry y="150" width="960" height="51" as="geometry" />
        </mxCell>
        <mxCell id="sc70_CKnT4Qj9o-1Ib0b-103" value="888" style="connectable=0;recursiveResize=0;strokeColor=inherit;fillColor=inherit;fontStyle=0;align=center;whiteSpace=wrap;html=1;" vertex="1" parent="sc70_CKnT4Qj9o-1Ib0b-102">
          <mxGeometry width="160" height="51" as="geometry">
            <mxRectangle width="160" height="51" as="alternateBounds" />
          </mxGeometry>
        </mxCell>
        <mxCell id="sc70_CKnT4Qj9o-1Ib0b-104" value="Impresora Laser" style="connectable=0;recursiveResize=0;strokeColor=inherit;fillColor=inherit;fontStyle=0;align=center;whiteSpace=wrap;html=1;" vertex="1" parent="sc70_CKnT4Qj9o-1Ib0b-102">
          <mxGeometry x="160" width="160" height="51" as="geometry">
            <mxRectangle width="160" height="51" as="alternateBounds" />
          </mxGeometry>
        </mxCell>
        <mxCell id="sc70_CKnT4Qj9o-1Ib0b-105" value="PrintPro" style="connectable=0;recursiveResize=0;strokeColor=inherit;fillColor=inherit;fontStyle=0;align=center;whiteSpace=wrap;html=1;" vertex="1" parent="sc70_CKnT4Qj9o-1Ib0b-102">
          <mxGeometry x="320" width="160" height="51" as="geometry">
            <mxRectangle width="160" height="51" as="alternateBounds" />
          </mxGeometry>
        </mxCell>
        <mxCell id="sc70_CKnT4Qj9o-1Ib0b-106" value="11/6/2024" style="connectable=0;recursiveResize=0;strokeColor=inherit;fillColor=inherit;fontStyle=0;align=center;whiteSpace=wrap;html=1;" vertex="1" parent="sc70_CKnT4Qj9o-1Ib0b-102">
          <mxGeometry x="480" width="160" height="51" as="geometry">
            <mxRectangle width="160" height="51" as="alternateBounds" />
          </mxGeometry>
        </mxCell>
        <mxCell id="sc70_CKnT4Qj9o-1Ib0b-107" value="$250" style="connectable=0;recursiveResize=0;strokeColor=inherit;fillColor=inherit;fontStyle=0;align=center;whiteSpace=wrap;html=1;" vertex="1" parent="sc70_CKnT4Qj9o-1Ib0b-102">
          <mxGeometry x="640" width="160" height="51" as="geometry">
            <mxRectangle width="160" height="51" as="alternateBounds" />
          </mxGeometry>
        </mxCell>
        <mxCell id="sc70_CKnT4Qj9o-1Ib0b-108" value="3" style="connectable=0;recursiveResize=0;strokeColor=inherit;fillColor=inherit;fontStyle=0;align=center;whiteSpace=wrap;html=1;" vertex="1" parent="sc70_CKnT4Qj9o-1Ib0b-102">
          <mxGeometry x="800" width="160" height="51" as="geometry">
            <mxRectangle width="160" height="51" as="alternateBounds" />
          </mxGeometry>
        </mxCell>
        <mxCell id="sc70_CKnT4Qj9o-1Ib0b-109" value="" style="shape=tableRow;horizontal=0;startSize=0;swimlaneHead=0;swimlaneBody=0;top=0;left=0;bottom=0;right=0;dropTarget=0;collapsible=0;recursiveResize=0;expand=0;fontStyle=1;strokeColor=inherit;fillColor=#EAF2D3;" vertex="1" parent="sc70_CKnT4Qj9o-1Ib0b-80">
          <mxGeometry y="201" width="960" height="49" as="geometry" />
        </mxCell>
        <mxCell id="sc70_CKnT4Qj9o-1Ib0b-110" value="871" style="connectable=0;recursiveResize=0;strokeColor=inherit;fillColor=inherit;whiteSpace=wrap;html=1;" vertex="1" parent="sc70_CKnT4Qj9o-1Ib0b-109">
          <mxGeometry width="160" height="49" as="geometry">
            <mxRectangle width="160" height="49" as="alternateBounds" />
          </mxGeometry>
        </mxCell>
        <mxCell id="sc70_CKnT4Qj9o-1Ib0b-111" value="Camara Web HD" style="connectable=0;recursiveResize=0;strokeColor=inherit;fillColor=inherit;whiteSpace=wrap;html=1;" vertex="1" parent="sc70_CKnT4Qj9o-1Ib0b-109">
          <mxGeometry x="160" width="160" height="49" as="geometry">
            <mxRectangle width="160" height="49" as="alternateBounds" />
          </mxGeometry>
        </mxCell>
        <mxCell id="sc70_CKnT4Qj9o-1Ib0b-112" value="&#xa;VisionTech&#xa;&#xa;" style="connectable=0;recursiveResize=0;strokeColor=inherit;fillColor=inherit;whiteSpace=wrap;html=1;" vertex="1" parent="sc70_CKnT4Qj9o-1Ib0b-109">
          <mxGeometry x="320" width="160" height="49" as="geometry">
            <mxRectangle width="160" height="49" as="alternateBounds" />
          </mxGeometry>
        </mxCell>
        <mxCell id="sc70_CKnT4Qj9o-1Ib0b-113" value="3/6/2024" style="connectable=0;recursiveResize=0;strokeColor=inherit;fillColor=inherit;whiteSpace=wrap;html=1;" vertex="1" parent="sc70_CKnT4Qj9o-1Ib0b-109">
          <mxGeometry x="480" width="160" height="49" as="geometry">
            <mxRectangle width="160" height="49" as="alternateBounds" />
          </mxGeometry>
        </mxCell>
        <mxCell id="sc70_CKnT4Qj9o-1Ib0b-114" value="$50" style="connectable=0;recursiveResize=0;strokeColor=inherit;fillColor=inherit;whiteSpace=wrap;html=1;" vertex="1" parent="sc70_CKnT4Qj9o-1Ib0b-109">
          <mxGeometry x="640" width="160" height="49" as="geometry">
            <mxRectangle width="160" height="49" as="alternateBounds" />
          </mxGeometry>
        </mxCell>
        <mxCell id="sc70_CKnT4Qj9o-1Ib0b-115" value="5" style="connectable=0;recursiveResize=0;strokeColor=inherit;fillColor=inherit;whiteSpace=wrap;html=1;" vertex="1" parent="sc70_CKnT4Qj9o-1Ib0b-109">
          <mxGeometry x="800" width="160" height="49" as="geometry">
            <mxRectangle width="160" height="49" as="alternateBounds" />
          </mxGeometry>
        </mxCell>
        <mxCell id="sc70_CKnT4Qj9o-1Ib0b-117" value="&lt;h2&gt;&lt;font face=&quot;Times New Roman&quot;&gt;Buscar&lt;/font&gt;&lt;/h2&gt;" style="rounded=1;whiteSpace=wrap;html=1;fillColor=#80FF00;strokeColor=#80ff66;" vertex="1" parent="1">
          <mxGeometry x="1020" y="210" width="170" height="50" as="geometry" />
        </mxCell>
        <mxCell id="sc70_CKnT4Qj9o-1Ib0b-118" value="&lt;h2&gt;&lt;font face=&quot;Times New Roman&quot;&gt;Editar&lt;/font&gt;&lt;/h2&gt;" style="rounded=1;whiteSpace=wrap;html=1;fillColor=#80FF00;strokeColor=#80ff66;" vertex="1" parent="1">
          <mxGeometry x="1020" y="300" width="170" height="50" as="geometry" />
        </mxCell>
        <mxCell id="sc70_CKnT4Qj9o-1Ib0b-119" value="&lt;h2&gt;&lt;font face=&quot;Times New Roman&quot;&gt;Eliminar&lt;/font&gt;&lt;/h2&gt;" style="rounded=1;whiteSpace=wrap;html=1;fillColor=#80FF00;strokeColor=#80ff66;" vertex="1" parent="1">
          <mxGeometry x="1020" y="390" width="170" height="50" as="geometry" />
        </mxCell>
      </root>
    </mxGraphModel>
  </diagram>
</mxfile>
